<?xml version="1.0" encoding="UTF-8" standalone="no"?>
<svg width="1280px" height="800px" viewBox="0 0 1280 800" version="1.1" xmlns="http://www.w3.org/2000/svg" xmlns:xlink="http://www.w3.org/1999/xlink" xmlns:sketch="http://www.bohemiancoding.com/sketch/ns">
    <!-- Generator: Sketch 3.4.4 (17249) - http://www.bohemiancoding.com/sketch -->
    <title>dollar_sign</title>
    <desc>Created with Sketch.</desc>
    <defs></defs>
    <g id="v6.3" stroke="none" stroke-width="1" fill="none" fill-rule="evenodd" sketch:type="MSPage">
        <g id="dollar_sign" sketch:type="MSArtboardGroup" fill="#FFFFFF">
            <path d="M642.011,419.245 C643.451007,419.155 644.728994,418.862502 645.845,418.3675 C646.961006,417.872498 647.905996,417.224504 648.68,416.4235 C649.454004,415.622496 650.038998,414.695505 650.435,413.6425 C650.831002,412.589495 651.029,411.460006 651.029,410.254 C651.029,409.065994 650.804002,408.058004 650.354,407.23 C649.903998,406.401996 649.301004,405.700003 648.545,405.124 C647.788996,404.547997 646.920505,404.066502 645.9395,403.6795 C644.958495,403.292498 643.928005,402.928002 642.848,402.586 L642.011,419.245 Z M642.011,384.631 C640.642993,384.703 639.450505,384.950498 638.4335,385.3735 C637.416495,385.796502 636.566003,386.345497 635.882,387.0205 C635.197997,387.695503 634.685002,388.464996 634.343,389.329 C634.000998,390.193004 633.83,391.101995 633.83,392.056 C633.83,393.172006 634.027998,394.125996 634.424,394.918 C634.820002,395.710004 635.359997,396.389497 636.044,396.9565 C636.728003,397.523503 637.515496,398.009498 638.4065,398.4145 C639.297504,398.819502 640.246995,399.192998 641.255,399.535 L642.011,384.631 Z M642.956,400.075 C644.234006,400.489002 645.502994,400.925498 646.763,401.3845 C648.023006,401.843502 649.147995,402.432996 650.138,403.153 C651.128005,403.873004 651.928997,404.763995 652.541,405.826 C653.153003,406.888005 653.459,408.228992 653.459,409.849 C653.459,411.397008 653.202503,412.854993 652.6895,414.223 C652.176497,415.591007 651.425005,416.792495 650.435,417.8275 C649.444995,418.862505 648.234507,419.694997 646.8035,420.325 C645.372493,420.955003 643.739009,421.315 641.903,421.405 L641.606,427.102 C641.588,427.336001 641.511501,427.533999 641.3765,427.696 C641.241499,427.858001 641.048001,427.939 640.796,427.939 L639.824,427.939 L640.148,421.405 C637.843988,421.296999 635.841509,420.802004 634.1405,419.92 C632.439491,419.037996 630.941006,417.877007 629.645,416.437 L630.374,415.384 C630.590001,415.113999 630.841999,414.979 631.13,414.979 C631.292001,414.979 631.489999,415.077999 631.724,415.276 C631.958001,415.474001 632.245998,415.721499 632.588,416.0185 C632.930002,416.315501 633.334998,416.639498 633.803,416.9905 C634.271002,417.341502 634.815497,417.674498 635.4365,417.9895 C636.057503,418.304502 636.763996,418.578999 637.556,418.813 C638.348004,419.047001 639.247995,419.191 640.256,419.245 L641.147,402.046 C639.922994,401.667998 638.726006,401.249502 637.556,400.7905 C636.385994,400.331498 635.346505,399.737504 634.4375,399.0085 C633.528495,398.279496 632.795003,397.379505 632.237,396.3085 C631.678997,395.237495 631.4,393.892008 631.4,392.272 C631.4,391.011994 631.638498,389.801506 632.1155,388.6405 C632.592502,387.479494 633.285495,386.444505 634.1945,385.5355 C635.103505,384.626495 636.223993,383.893003 637.556,383.335 C638.888007,382.776997 640.417991,382.471 642.146,382.417 L642.362,377.908 C642.362,377.655999 642.433999,377.449001 642.578,377.287 C642.722001,377.124999 642.910999,377.044 643.145,377.044 L644.117,377.044 L643.847,382.471 C645.665009,382.597001 647.257993,382.997497 648.626,383.6725 C649.994007,384.347503 651.244994,385.251994 652.379,386.386 L651.785,387.304 C651.604999,387.610002 651.362002,387.763 651.056,387.763 C650.839999,387.763 650.556502,387.614501 650.2055,387.3175 C649.854498,387.020499 649.395503,386.687502 648.8285,386.3185 C648.261497,385.949498 647.564004,385.598502 646.736,385.2655 C645.907996,384.932498 644.909006,384.721 643.739,384.631 L642.956,400.075 Z" id="$" sketch:type="MSShapeGroup"></path>
        </g>
    </g>
</svg>